{
	"asset":{
		"generator":"Khronos glTF Blender I/O v4.3.47",
		"version":"2.0"
	},
	"scene":0,
	"scenes":[
		{
			"name":"Scene",
			"nodes":[
				0
			]
		}
	],
	"nodes":[
		{
			"mesh":0,
			"name":"Plane.005"
		}
	],
	"meshes":[
		{
			"name":"Plane.005",
			"primitives":[
				{
					"attributes":{
						"POSITION":0,
						"NORMAL":1,
						"TEXCOORD_0":2
					},
					"indices":3
				}
			]
		}
	],
	"accessors":[
		{
			"bufferView":0,
			"componentType":5126,
			"count":85889,
			"max":[
				23.831588745117188,
				15.574393272399902,
				24.294002532958984
			],
			"min":[
				-20,
				-17.02475357055664,
				-20.86823272705078
			],
			"type":"VEC3"
		},
		{
			"bufferView":1,
			"componentType":5126,
			"count":85889,
			"type":"VEC3"
		},
		{
			"bufferView":2,
			"componentType":5126,
			"count":85889,
			"type":"VEC2"
		},
		{
			"bufferView":3,
			"componentType":5125,
			"count":129024,
			"type":"SCALAR"
		}
	],
	"bufferViews":[
		{
			"buffer":0,
			"byteLength":1030668,
			"byteOffset":0,
			"target":34962
		},
		{
			"buffer":0,
			"byteLength":1030668,
			"byteOffset":1030668,
			"target":34962
		},
		{
			"buffer":0,
			"byteLength":687112,
			"byteOffset":2061336,
			"target":34962
		},
		{
			"buffer":0,
			"byteLength":516096,
			"byteOffset":2748448,
			"target":34963
		}
	],
	"buffers":[
		{
			"byteLength":3264544,
			"uri":"map.bin"
		}
	]
}
