{
	"asset":{
		"generator":"Khronos glTF Blender I/O v4.3.47",
		"version":"2.0"
	},
	"scene":0,
	"scenes":[
		{
			"name":"Scene",
			"nodes":[
				0
			]
		}
	],
	"nodes":[
		{
			"mesh":0,
			"name":"Plane.005"
		}
	],
	"materials":[
		{
			"doubleSided":true,
			"name":"Material.001",
			"pbrMetallicRoughness":{
				"baseColorFactor":[
					0.007439792156219482,
					0.05877280235290527,
					1,
					1
				],
				"metallicFactor":0.4173228144645691,
				"roughnessFactor":0.5
			}
		},
		{
			"doubleSided":true,
			"name":"Material.008"
		},
		{
			"doubleSided":true,
			"name":"Material.003",
			"pbrMetallicRoughness":{
				"baseColorFactor":[
					0.14448177814483643,
					0.018307071179151535,
					0.003156486200168729,
					1
				],
				"metallicFactor":0,
				"roughnessFactor":0.5
			}
		}
	],
	"meshes":[
		{
			"name":"Plane.005",
			"primitives":[
				{
					"attributes":{
						"POSITION":0,
						"NORMAL":1,
						"TEXCOORD_0":2
					},
					"indices":3,
					"material":0
				},
				{
					"attributes":{
						"POSITION":4,
						"NORMAL":5,
						"TEXCOORD_0":6
					},
					"indices":7,
					"material":1
				},
				{
					"attributes":{
						"POSITION":8,
						"NORMAL":9,
						"TEXCOORD_0":10
					},
					"indices":11,
					"material":2
				}
			]
		}
	],
	"accessors":[
		{
			"bufferView":0,
			"componentType":5126,
			"count":4096,
			"max":[
				20.631013870239258,
				-0.07661700248718262,
				20.43454933166504
			],
			"min":[
				-18.68336296081543,
				-1.0563663244247437,
				-18.894439697265625
			],
			"type":"VEC3"
		},
		{
			"bufferView":1,
			"componentType":5126,
			"count":4096,
			"type":"VEC3"
		},
		{
			"bufferView":2,
			"componentType":5126,
			"count":4096,
			"type":"VEC2"
		},
		{
			"bufferView":3,
			"componentType":5123,
			"count":6144,
			"type":"SCALAR"
		},
		{
			"bufferView":4,
			"componentType":5126,
			"count":65409,
			"max":[
				20.01108169555664,
				0.32302120327949524,
				20
			],
			"min":[
				-20,
				-1.9036085605621338,
				-20
			],
			"type":"VEC3"
		},
		{
			"bufferView":5,
			"componentType":5126,
			"count":65409,
			"type":"VEC3"
		},
		{
			"bufferView":6,
			"componentType":5126,
			"count":65409,
			"type":"VEC2"
		},
		{
			"bufferView":7,
			"componentType":5123,
			"count":98304,
			"type":"SCALAR"
		},
		{
			"bufferView":8,
			"componentType":5126,
			"count":16384,
			"max":[
				23.831588745117188,
				15.574393272399902,
				24.294002532958984
			],
			"min":[
				-19.941904067993164,
				-17.02475357055664,
				-20.86823272705078
			],
			"type":"VEC3"
		},
		{
			"bufferView":9,
			"componentType":5126,
			"count":16384,
			"type":"VEC3"
		},
		{
			"bufferView":10,
			"componentType":5126,
			"count":16384,
			"type":"VEC2"
		},
		{
			"bufferView":11,
			"componentType":5123,
			"count":24576,
			"type":"SCALAR"
		}
	],
	"bufferViews":[
		{
			"buffer":0,
			"byteLength":49152,
			"byteOffset":0,
			"target":34962
		},
		{
			"buffer":0,
			"byteLength":49152,
			"byteOffset":49152,
			"target":34962
		},
		{
			"buffer":0,
			"byteLength":32768,
			"byteOffset":98304,
			"target":34962
		},
		{
			"buffer":0,
			"byteLength":12288,
			"byteOffset":131072,
			"target":34963
		},
		{
			"buffer":0,
			"byteLength":784908,
			"byteOffset":143360,
			"target":34962
		},
		{
			"buffer":0,
			"byteLength":784908,
			"byteOffset":928268,
			"target":34962
		},
		{
			"buffer":0,
			"byteLength":523272,
			"byteOffset":1713176,
			"target":34962
		},
		{
			"buffer":0,
			"byteLength":196608,
			"byteOffset":2236448,
			"target":34963
		},
		{
			"buffer":0,
			"byteLength":196608,
			"byteOffset":2433056,
			"target":34962
		},
		{
			"buffer":0,
			"byteLength":196608,
			"byteOffset":2629664,
			"target":34962
		},
		{
			"buffer":0,
			"byteLength":131072,
			"byteOffset":2826272,
			"target":34962
		},
		{
			"buffer":0,
			"byteLength":49152,
			"byteOffset":2957344,
			"target":34963
		}
	],
	"buffers":[
		{
			"byteLength":3006496,
			"uri":"map2.bin"
		}
	]
}
