{
	"asset":{
		"generator":"Khronos glTF Blender I/O v4.3.47",
		"version":"2.0"
	},
	"scene":0,
	"scenes":[
		{
			"name":"Scene",
			"nodes":[
				0
			]
		}
	],
	"nodes":[
		{
			"mesh":0,
			"name":"Sphere"
		}
	],
	"materials":[
		{
			"doubleSided":true,
			"name":"Material.001",
			"pbrMetallicRoughness":{
				"baseColorFactor":[
					0.0017371131107211113,
					0.7117648124694824,
					0,
					1
				],
				"metallicFactor":0,
				"roughnessFactor":0.5
			}
		},
		{
			"doubleSided":true,
			"name":"Material.002",
			"pbrMetallicRoughness":{
				"baseColorFactor":[
					0.001535329269245267,
					0.017761602997779846,
					0,
					1
				],
				"metallicFactor":0,
				"roughnessFactor":0.5
			}
		}
	],
	"meshes":[
		{
			"name":"Sphere",
			"primitives":[
				{
					"attributes":{
						"POSITION":0,
						"NORMAL":1,
						"TEXCOORD_0":2
					},
					"indices":3,
					"material":0
				},
				{
					"attributes":{
						"POSITION":4,
						"NORMAL":5,
						"TEXCOORD_0":6
					},
					"indices":7,
					"material":1
				}
			]
		}
	],
	"accessors":[
		{
			"bufferView":0,
			"componentType":5126,
			"count":952,
			"max":[
				1.4100474119186401,
				1.3829541206359863,
				1.410046935081482
			],
			"min":[
				-1.4100465774536133,
				-1.3829541206359863,
				-1.4100478887557983
			],
			"type":"VEC3"
		},
		{
			"bufferView":1,
			"componentType":5126,
			"count":952,
			"type":"VEC3"
		},
		{
			"bufferView":2,
			"componentType":5126,
			"count":952,
			"type":"VEC2"
		},
		{
			"bufferView":3,
			"componentType":5123,
			"count":1428,
			"type":"SCALAR"
		},
		{
			"bufferView":4,
			"componentType":5126,
			"count":1032,
			"max":[
				1.4100474119186401,
				1.4100478887557983,
				1.410046935081482
			],
			"min":[
				-1.4100465774536133,
				-1.4100478887557983,
				-1.4100478887557983
			],
			"type":"VEC3"
		},
		{
			"bufferView":5,
			"componentType":5126,
			"count":1032,
			"type":"VEC3"
		},
		{
			"bufferView":6,
			"componentType":5126,
			"count":1032,
			"type":"VEC2"
		},
		{
			"bufferView":7,
			"componentType":5123,
			"count":1452,
			"type":"SCALAR"
		}
	],
	"bufferViews":[
		{
			"buffer":0,
			"byteLength":11424,
			"byteOffset":0,
			"target":34962
		},
		{
			"buffer":0,
			"byteLength":11424,
			"byteOffset":11424,
			"target":34962
		},
		{
			"buffer":0,
			"byteLength":7616,
			"byteOffset":22848,
			"target":34962
		},
		{
			"buffer":0,
			"byteLength":2856,
			"byteOffset":30464,
			"target":34963
		},
		{
			"buffer":0,
			"byteLength":12384,
			"byteOffset":33320,
			"target":34962
		},
		{
			"buffer":0,
			"byteLength":12384,
			"byteOffset":45704,
			"target":34962
		},
		{
			"buffer":0,
			"byteLength":8256,
			"byteOffset":58088,
			"target":34962
		},
		{
			"buffer":0,
			"byteLength":2904,
			"byteOffset":66344,
			"target":34963
		}
	],
	"buffers":[
		{
			"byteLength":69248,
			"uri":"watermelon.bin"
		}
	]
}
